<svg xmlns="http://www.w3.org/2000/svg" viewBox="0 0 200 200">
  <defs>
    <linearGradient id="gradient1" x1="0%" y1="0%" x2="100%" y2="100%">
      <stop offset="0%" style="stop-color:#00ffff"/>
      <stop offset="33%" style="stop-color:#2979ff"/>
      <stop offset="66%" style="stop-color:#651fff"/>
      <stop offset="100%" style="stop-color:#00ffff"/>
    </linearGradient>
    <linearGradient id="gradient2" x1="100%" y1="0%" x2="0%" y2="100%">
      <stop offset="0%" style="stop-color:#651fff"/>
      <stop offset="33%" style="stop-color:#00ffff"/>
      <stop offset="66%" style="stop-color:#2979ff"/>
      <stop offset="100%" style="stop-color:#651fff"/>
    </linearGradient>
    
    <!-- New gradient for center circle matching the scheme -->
    <radialGradient id="centerGradient">
      <stop offset="0%" style="stop-color:#2979ff"/>
      <stop offset="100%" style="stop-color:#651fff"/>
    </radialGradient>
  </defs>
  

  
  <g transform="translate(100,100)">
    <path d="M0,-70 A70,70 0 0,1 60.62,35 Q40,25 45,0 T0,-45 Z" 
          fill="url(#gradient1)" transform="rotate(0)"/>
    <path d="M0,-70 A70,70 0 0,1 60.62,35 Q40,25 45,0 T0,-45 Z" 
          fill="url(#gradient2)" transform="rotate(60)"/>
    <path d="M0,-70 A70,70 0 0,1 60.62,35 Q40,25 45,0 T0,-45 Z" 
          fill="url(#gradient1)" transform="rotate(120)"/>
    <path d="M0,-70 A70,70 0 0,1 60.62,35 Q40,25 45,0 T0,-45 Z" 
          fill="url(#gradient2)" transform="rotate(180)"/>
    <path d="M0,-70 A70,70 0 0,1 60.62,35 Q40,25 45,0 T0,-45 Z" 
          fill="url(#gradient1)" transform="rotate(240)"/>
    <path d="M0,-70 A70,70 0 0,1 60.62,35 Q40,25 45,0 T0,-45 Z" 
          fill="url(#gradient2)" transform="rotate(300)"/>
    
    <circle cx="0" cy="-60" r="5" fill="#00ffff"/>
    <circle cx="52" cy="30" r="5" fill="#651fff"/>
    <circle cx="-52" cy="30" r="5" fill="#00ffff"/>
    <circle cx="52" cy="-30" r="5" fill="#651fff"/>
    <circle cx="-52" cy="-30" r="5" fill="#00ffff"/>
    <circle cx="0" cy="60" r="5" fill="#651fff"/>
    
    <!-- Modified center circle with matching gradient -->
    <circle cx="0" cy="0" r="10" fill="url(#centerGradient)" opacity="0.9"/>
  </g>
</svg>
