<svg xmlns="http://www.w3.org/2000/svg" viewBox="0 0 200 200">
  <defs>
    <!-- Gradient Definitions -->
    <linearGradient id="gradient1" x1="0%" y1="0%" x2="100%" y2="100%">
      <stop offset="0%" style="stop-color:#00ffff"/>
      <stop offset="33%" style="stop-color:#2979ff"/>
      <stop offset="66%" style="stop-color:#651fff"/>
      <stop offset="100%" style="stop-color:#00ffff"/>
    </linearGradient>
    <linearGradient id="gradient2" x1="100%" y1="0%" x2="0%" y2="100%">
      <stop offset="0%" style="stop-color:#651fff"/>
      <stop offset="33%" style="stop-color:#00ffff"/>
      <stop offset="66%" style="stop-color:#2979ff"/>
      <stop offset="100%" style="stop-color:#651fff"/>
    </linearGradient>

    <radialGradient id="centerGradient">
      <stop offset="0%" style="stop-color:#2979ff"/>
      <stop offset="100%" style="stop-color:#651fff"/>
    </radialGradient>
  </defs>

  <!-- Background -->
 

  <g transform="translate(100,100)">
    <!-- Paths -->
    <path d="M0,-100 A100,100 0 0,1 86.6,-50 Q57,36 64,0 T0,-64 Z" 
          fill="url(#gradient1)" transform="rotate(0)"/>
    <path d="M0,-100 A100,100 0 0,1 86.6,-50 Q57,36 64,0 T0,-64 Z" 
          fill="url(#gradient2)" transform="rotate(60)"/>
    <path d="M0,-100 A100,100 0 0,1 86.6,-50 Q57,36 64,0 T0,-64 Z" 
          fill="url(#gradient1)" transform="rotate(120)"/>
    <path d="M0,-100 A100,100 0 0,1 86.6,-50 Q57,36 64,0 T0,-64 Z" 
          fill="url(#gradient2)" transform="rotate(180)"/>
    <path d="M0,-100 A100,100 0 0,1 86.6,-50 Q57,36 64,0 T0,-64 Z" 
          fill="url(#gradient1)" transform="rotate(240)"/>
    <path d="M0,-100 A100,100 0 0,1 86.6,-50 Q57,36 64,0 T0,-64 Z" 
          fill="url(#gradient2)" transform="rotate(300)"/>

    <!-- Slightly Tilted Cubes -->
    <rect x="-5" y="-95" width="10" height="10" fill="#00ffff"
          transform="rotate(10, 0, -90)"/>
    <rect x="69" y="38" width="10" height="10" fill="#651fff"
          transform="rotate(10, 74, 43)"/>
    <rect x="-79" y="38" width="10" height="10" fill="#00ffff"
          transform="rotate(10, -74, 43)"/>
    <rect x="69" y="-48" width="10" height="10" fill="#651fff"
          transform="rotate(10, 74, -43)"/>
    <rect x="-79" y="-48" width="10" height="10" fill="#00ffff"
          transform="rotate(10, -74, -43)"/>
    <rect x="-5" y="85" width="10" height="10" fill="#651fff"
          transform="rotate(10, 0, 90)"/>

    <!-- Center Cube -->
    <rect x="-25" y="-25" width="50" height="50" fill="url(#centerGradient)"
          opacity="0.9" transform="rotate(40, 0, 0)"/>
  </g>
</svg>