<svg version="1.2" xmlns="http://www.w3.org/2000/svg" viewBox="0 0 750 500" width="750" height="500">
	<title>5179949</title>
	<defs>
		<radialGradient id="g1" cx="0" cy="0" r="1" gradientUnits="userSpaceOnUse" gradientTransform="matrix(59.449,0,0,9.835,359.155,321.535)">
			<stop offset="0" stop-color="#38246d"/>
			<stop offset="1" stop-color="#ffffff" stop-opacity="0"/>
		</radialGradient>
		<linearGradient id="g2" x2="1" gradientUnits="userSpaceOnUse" gradientTransform="matrix(-61.218,47.806,-26.759,-34.266,425.469,206.569)">
			<stop offset="0" stop-color="#ff6382"/>
			<stop offset="1" stop-color="#fc8a8f"/>
		</linearGradient>
		<linearGradient id="g3" x2="1" gradientUnits="userSpaceOnUse" gradientTransform="matrix(40.427,39.886,-66.971,67.879,381.475,213.344)">
			<stop offset="0" stop-color="#fc8a8f"/>
			<stop offset="1" stop-color="#ff6382"/>
		</linearGradient>
		<linearGradient id="g4" x2="1" gradientUnits="userSpaceOnUse" gradientTransform="matrix(40.427,39.886,-66.972,67.88,341.049,173.457)">
			<stop offset="0" stop-color="#ff6382"/>
			<stop offset="1" stop-color="#fc8a8f"/>
		</linearGradient>
		<linearGradient id="g5" x2="1" gradientUnits="userSpaceOnUse" gradientTransform="matrix(-56.683,47.541,-26.61,-31.727,423.128,205.432)">
			<stop offset=".064" stop-color="#824230"/>
			<stop offset=".729" stop-color="#ffffff" stop-opacity="0"/>
			<stop offset="1" stop-color="#ffffff" stop-opacity="0"/>
		</linearGradient>
		<linearGradient id="g6" x2="1" gradientUnits="userSpaceOnUse" gradientTransform="matrix(-41.561,-40.153,67.419,-69.782,355.274,322.194)">
			<stop offset="0" stop-color="#824230"/>
			<stop offset=".729" stop-color="#ffffff" stop-opacity="0"/>
			<stop offset="1" stop-color="#ffffff" stop-opacity="0"/>
		</linearGradient>
		<linearGradient id="g7" x2="1" gradientUnits="userSpaceOnUse" gradientTransform="matrix(40.427,39.886,-66.972,67.88,341.049,173.457)">
			<stop offset="0" stop-color="#824230"/>
			<stop offset=".729" stop-color="#ffffff" stop-opacity="0"/>
			<stop offset="1" stop-color="#ffffff" stop-opacity="0"/>
		</linearGradient>
	</defs>
	<style>
		tspan { white-space:pre } 
		.s0 { opacity: .3;mix-blend-mode: multiply;fill: url(#g1) } 
		.s1 { fill: url(#g2) } 
		.s2 { fill: url(#g3) } 
		.s3 { fill: url(#g4) } 
		.s4 { opacity: .3;mix-blend-mode: multiply;fill: url(#g5) } 
		.s5 { opacity: .4;mix-blend-mode: multiply;fill: url(#g6) } 
		.s6 { opacity: .4;mix-blend-mode: multiply;fill: url(#g7) } 
		.s7 { mix-blend-mode: overlay;fill: #ff929a } 
	</style>
	<g id="OBJECTS">
		<g id="&lt;Group&gt;">
			<g id="&lt;Group&gt;">
				<g id="&lt;Group&gt;">
					<path id="&lt;Path&gt;" fill-rule="evenodd" class="s0" d="m434.9 321.5c0 6.1-33.9 11.1-75.7 11.1-41.9 0-75.8-5-75.8-11.1 0-6 33.9-11 75.8-11 41.8 0 75.7 5 75.7 11z"/>
					<g id="&lt;Group&gt;">
						<g id="&lt;Group&gt;">
							<path id="&lt;Path&gt;" fill-rule="evenodd" class="s1" d="m421.9 253.2l-62.7-17.2-18.2-62.5 62.8 17.2z"/>
							<path id="&lt;Path&gt;" fill-rule="evenodd" class="s2" d="m421.9 253.2l-44.6 45.3-62.8-17.3 44.7-45.2z"/>
							<path id="&lt;Path&gt;" fill-rule="evenodd" class="s3" d="m359.2 236l-44.7 45.2-18.1-62.5 44.6-45.2z"/>
							<g id="&lt;Group&gt;" style="opacity: .4">
								<path id="&lt;Path&gt;" fill-rule="evenodd" class="s4" d="m421.9 253.2l-62.7-17.2-18.2-62.5 62.8 17.2z"/>
								<path id="&lt;Path&gt;" fill-rule="evenodd" class="s5" d="m421.9 253.2l-44.6 45.3-62.8-17.3 44.7-45.2z"/>
								<path id="&lt;Path&gt;" fill-rule="evenodd" class="s6" d="m359.2 236l-44.7 45.2-18.1-62.5 44.6-45.2z"/>
							</g>
						</g>
						<path id="&lt;Path&gt;" fill-rule="evenodd" class="s7" d="m421.9 253.2l-61.9-18c-3-10.3-6-20.5-9.2-30.7q-2.3-7.8-4.8-15.6c-1.6-5.1-3.2-10.3-5-15.4 1.3 5.2 2.8 10.5 4.1 15.7q2.1 7.9 4.3 15.7c2.8 10.3 5.7 20.5 8.6 30.8-7.2 7.4-14.5 14.8-21.7 22.4l-11 11.5c-3.6 3.9-7.2 7.7-10.8 11.6 3.9-3.6 7.7-7.3 11.5-11l11.4-11.1c7.4-7.3 14.7-14.6 22.1-22z"/>
					</g>
				</g>
			</g>
		</g>
	</g>
	<g id="TEXTURE">
	</g>
</svg>