<svg version="1.2" xmlns="http://www.w3.org/2000/svg" viewBox="0 0 750 500" width="750" height="500">
	<title>3548480</title>
	<defs>
		<linearGradient id="g1" x2="1" gradientUnits="userSpaceOnUse" gradientTransform="matrix(-17.571,-28.876,22.396,-13.628,379.421,283.649)">
			<stop offset="0" stop-color="#26227f"/>
			<stop offset="1" stop-color="#3832ba"/>
		</linearGradient>
		<linearGradient id="g2" x2="1" gradientUnits="userSpaceOnUse" gradientTransform="matrix(39.602,-24.098,4.642,7.629,335.446,230.754)">
			<stop offset="0" stop-color="#716cee"/>
			<stop offset="1" stop-color="#5b53eb"/>
		</linearGradient>
		<linearGradient id="g3" x2="1" gradientUnits="userSpaceOnUse" gradientTransform="matrix(36.78,-7.363,10.823,54.064,334.269,250.917)">
			<stop offset="0" stop-color="#5049cc"/>
			<stop offset="1" stop-color="#2e2a99"/>
		</linearGradient>
		<linearGradient id="g4" x2="1" gradientUnits="userSpaceOnUse" gradientTransform="matrix(41.242,-1.671,2.457,60.623,381.446,217.272)">
			<stop offset="0" stop-color="#26227f"/>
			<stop offset="1" stop-color="#3832ba"/>
		</linearGradient>
		<linearGradient id="g5" x2="1" gradientUnits="userSpaceOnUse" gradientTransform="matrix(-53.376,-8.148,9.241,-60.533,375.755,285.222)">
			<stop offset="0" stop-color="#5049cc"/>
			<stop offset="1" stop-color="#6863db"/>
		</linearGradient>
		<linearGradient id="g6" x2="1" gradientUnits="userSpaceOnUse" gradientTransform="matrix(8.238,-53.966,61.202,9.343,349.819,254.419)">
			<stop offset="0" stop-color="#2e2a99"/>
			<stop offset="1" stop-color="#5049cc"/>
		</linearGradient>
		<linearGradient id="g7" x2="1" gradientUnits="userSpaceOnUse" gradientTransform="matrix(1,0,0,1.643,359.889,226.334)">
			<stop offset="0" stop-color="#fae6dd"/>
			<stop offset="1" stop-color="#fae6dd"/>
		</linearGradient>
		<linearGradient id="g8" x2="1" gradientUnits="userSpaceOnUse" gradientTransform="matrix(1,0,0,1.878,361.144,270.316)">
			<stop offset="0" stop-color="#fae6dd"/>
			<stop offset="1" stop-color="#fae6dd"/>
		</linearGradient>
		<linearGradient id="g9" x2="1" gradientUnits="userSpaceOnUse" gradientTransform="matrix(1,0,0,.036,398.374,247.662)">
			<stop offset="0" stop-color="#fae6dd"/>
			<stop offset="1" stop-color="#fae6dd"/>
		</linearGradient>
		<linearGradient id="g10" x2="1" gradientUnits="userSpaceOnUse" gradientTransform="matrix(1,0,0,6.897,398.374,247.662)">
			<stop offset="0" stop-color="#fae6dd"/>
			<stop offset="1" stop-color="#fae6dd"/>
		</linearGradient>
		<linearGradient id="g11" x2="1" gradientUnits="userSpaceOnUse" gradientTransform="matrix(1,0,0,.346,339.896,262.954)">
			<stop offset="0" stop-color="#fae6dd"/>
			<stop offset="1" stop-color="#fae6dd"/>
		</linearGradient>
		<linearGradient id="g12" x2="1" gradientUnits="userSpaceOnUse" gradientTransform="matrix(1,0,0,.458,338.667,236.048)">
			<stop offset="0" stop-color="#fae6dd"/>
			<stop offset="1" stop-color="#fae6dd"/>
		</linearGradient>
		<linearGradient id="g13" x2="1" gradientUnits="userSpaceOnUse" gradientTransform="matrix(1,0,0,.783,359.889,226.334)">
			<stop offset="0" stop-color="#fae6dd"/>
			<stop offset="1" stop-color="#fae6dd"/>
		</linearGradient>
		<linearGradient id="g14" x2="1" gradientUnits="userSpaceOnUse" gradientTransform="matrix(1,0,0,.752,361.144,270.316)">
			<stop offset="0" stop-color="#fae6dd"/>
			<stop offset="1" stop-color="#fae6dd"/>
		</linearGradient>
		<linearGradient id="g15" x2="1" gradientUnits="userSpaceOnUse" gradientTransform="matrix(1,0,0,5.914,398.374,247.662)">
			<stop offset="0" stop-color="#fae6dd"/>
			<stop offset="1" stop-color="#fae6dd"/>
		</linearGradient>
	</defs>
	<style>
		.s0 { fill: url(#g1) } 
		.s1 { fill: url(#g2) } 
		.s2 { fill: url(#g3) } 
		.s3 { fill: url(#g4) } 
		.s4 { fill: url(#g5) } 
		.s5 { fill: url(#g6) } 
		.s6 { fill: url(#g7) } 
		.s7 { fill: url(#g8) } 
		.s8 { fill: url(#g9) } 
		.s9 { fill: url(#g10) } 
		.s10 { fill: url(#g11) } 
		.s11 { fill: url(#g12) } 
		.s12 { fill: url(#g13) } 
		.s13 { fill: url(#g14) } 
		.s14 { fill: url(#g15) } 
	</style>
	<g id="OBJECTS">
		<g id="&lt;Clip Group&gt;">
			<g id="&lt;Group&gt;">
				<g id="&lt;Clip Group&gt;">
					<g id="&lt;Group&gt;">
						<path id="&lt;Path&gt;" class="s0" d="m373 248l25.4-0.3 3.7 22.1-23 14-18-13.5z"/>
						<path id="&lt;Path&gt;" class="s1" d="m359.9 226.3l18.4-14.3-11.5-0.3-23.1 14-5 10.3z"/>
						<path id="&lt;Path&gt;" class="s2" d="m361.1 270.3l18 13.5-11.9 3.9-23.8-12.6-3.5-12.1z"/>
						<path id="&lt;Path&gt;" class="s3" d="m398.4 247.7l3.7 22.1 8.9-8.8-0.2-26.9-9.2-8.7z"/>
						<path id="&lt;Path&gt;" class="s4" d="m373 248l-11.9 22.3-21.2-7.3-1.2-27 21.2-9.7z"/>
						<path id="&lt;Path&gt;" class="s5" d="m373 248l25.4-0.3 3.2-22.3-23.3-13.4-18.4 14.3z"/>
					</g>
					<g id="&lt;Group&gt;">
						<g id="&lt;Group&gt;" style="opacity: .7;mix-blend-mode: overlay">
							<path id="&lt;Mesh&gt;" class="s6" d="m359.9 226.3q0.9 1.4 0.9 1.4 0 0 0-0.1 0 0-0.9-1.3zm0.9 1.3q0 0.1 0 0.1l0.8 1.3q0 0 0.1-0.1zm0.9 1.3q-0.1 0.1-0.1 0.1l0.9 1.3q0 0 0.1-0.1zm0.9 1.4q-0.1 0-0.1 0l0.8 1.4q0 0 0.2-0.1zm1.3 2c-0.2-0.4-0.5-0.7-0.5-0.7q-0.1 0.1-0.1 0.1l0.8 1.3q0 0 0.2-0.1c0 0-0.2-0.3-0.4-0.6zm0.4 0.6q-0.2 0.1-0.2 0.1l0.9 1.4q0 0 0.1-0.1zm0.9 1.3q-0.2 0.1-0.2 0.1l0.8 1.4q0 0 0.2-0.2zm0.9 1.4q-0.2 0.1-0.2 0.1l0.8 1.3q0 0 0.2-0.1zm0.8 1.4q-0.2 0.1-0.2 0.1l0.9 1.3q0 0 0.1-0.1zm0.9 1.4q-0.2 0.1-0.2 0.1l0.8 1.4q0 0 0.2-0.1zm0.8 1.3q-0.2 0.1-0.2 0.1l0.8 1.4q0 0 0.2-0.1zm1.2 2c-0.2-0.3-0.4-0.7-0.4-0.7q-0.2 0.1-0.2 0.1l0.8 1.4q0 0 0.2-0.1c0 0-0.2-0.3-0.4-0.7zm0.4 0.7q-0.2 0.1-0.2 0.1l0.8 1.4q0 0 0.1-0.1zm0.8 1.4q-0.1 0.1-0.1 0.1l0.8 1.3q0 0 0.1 0zm0.7 1.4q-0.1 0-0.1 0l0.8 1.4q0 0 0.1 0zm0.7 1.4q-0.1 0-0.1 0 0 0 0.8 1.4-0.7-1.4-0.7-1.4zm-12.4-20.2q0.8 1.3 0.8 1.3 0 0-0.8-1.3zm0.8 1.3l0.8 1.4 0.1-0.1zm0.9 1.3l-0.1 0.1 0.8 1.3h0.1zm0.9 1.3l-0.2 0.1 0.9 1.3 0.1-0.1zm0.9 1.4l-0.2 0.1 0.8 1.3 0.2-0.1zm0.8 1.3l-0.1 0.1 0.8 1.4 0.2-0.1zm0.8 1.3l-0.2 0.1 0.9 1.4 0.1-0.1zm0.9 1.3l-0.2 0.1 0.8 1.4 0.2-0.1zm0.8 1.3l-0.2 0.1 0.9 1.4 0.1-0.1zm0.9 1.3l-0.2 0.1 0.8 1.4 0.2-0.1zm0.8 1.3l-0.2 0.2 0.8 1.3 0.2-0.1zm0.8 1.4l-0.2 0.1 0.9 1.3 0.1-0.1zm0.8 1.4l-0.1 0.1 0.8 1.3h0.1zm0.8 1.3l-0.1 0.1 0.8 1.4 0.1-0.1zm0.8 1.4h-0.1l0.8 1.4 0.1-0.1zm0.8 1.4h-0.1q0 0 0.8 1.4-0.7-1.4-0.7-1.4zm-12.4-20.2q0.7 1.4 0.7 1.4l0.1-0.1q0 0-0.8-1.3zm0.8 1.3l-0.1 0.1 0.8 1.3h0.1zm0.8 1.3l-0.1 0.1 0.8 1.4 0.2-0.1zm0.8 1.3l-0.1 0.1 0.8 1.4 0.1-0.1zm0.8 1.3l-0.1 0.1 0.8 1.4 0.2-0.1zm0.8 1.3l-0.2 0.1 0.8 1.4 0.2-0.1zm0.8 1.3l-0.2 0.1 0.9 1.4 0.1-0.1zm0.9 1.3l-0.2 0.2 0.8 1.3 0.2-0.1zm0.8 1.3l-0.2 0.2 0.8 1.3 0.2-0.1zm0.9 1.4l-0.2 0.1 0.8 1.3 0.2-0.1zm0.8 1.4l-0.2 0.1 0.9 1.3 0.1-0.1zm0.8 1.4l-0.1 0.1 0.8 1.3 0.2-0.1zm0.8 1.4l-0.2 0.1 0.9 1.3 0.1-0.1zm0.8 1.4h-0.1l0.9 1.4 0.1-0.1zm0.8 1.4h-0.1l0.8 1.4 0.1-0.1zm0.8 1.4q0 0 0.8 1.3-0.8-1.3-0.8-1.3zm-12.3-20.3q0.7 1.4 0.7 1.4 0.1 0 0.1 0 0 0-0.8-1.4zm0.8 1.4q0 0-0.1 0l0.7 1.4q0.1 0 0.1 0zm0.8 1.3q0 0-0.1 0.1l0.8 1.4q0.1-0.1 0.1-0.1zm0.8 1.4q0 0-0.1 0l0.8 1.4q0.1-0.1 0.1-0.1zm0.8 1.4q0 0-0.2 0.1c0 0 0.2 0.3 0.4 0.7 0.2 0.3 0.4 0.7 0.4 0.7q0.2-0.1 0.2-0.1zm0.8 1.3q0 0-0.2 0.1l0.8 1.4q0.2-0.1 0.2-0.1zm0.8 1.3q0 0-0.1 0.2l0.8 1.3q0.1-0.1 0.1-0.1zm0.9 1.4q0 0-0.2 0.1l0.8 1.3q0.2-0.1 0.2-0.1zm0.8 1.4q0 0-0.2 0.1l0.8 1.3q0.2-0.1 0.2-0.1zm0.8 1.4q0 0-0.1 0.1l0.8 1.3q0.2-0.1 0.2-0.1zm0.8 1.4q0 0-0.2 0.1l0.9 1.3q0.1-0.1 0.1-0.1zm0.9 1.4q0 0-0.2 0.1c0 0 0.2 0.3 0.4 0.6 0.2 0.4 0.5 0.7 0.5 0.7q0.1-0.1 0.1-0.1zm0.9 1.3q0 0-0.2 0.1l0.9 1.3q0.1 0 0.1 0zm0.9 1.3q0 0-0.2 0.1l0.9 1.3q0.1-0.1 0.1-0.1zm0.9 1.4q0 0-0.1 0l0.9 1.3q0 0 0 0zm0.9 1.3q0 0-0.1 0.1 0 0 1 1.2-0.9-1.3-0.9-1.3z"/>
						</g>
						<g id="&lt;Group&gt;" style="opacity: .7;mix-blend-mode: overlay">
							<path id="&lt;Mesh&gt;" class="s7" d="m361.1 270.3q0.7-1.4 0.7-1.4 0 0 0 0 0 0-0.7 1.4zm0.7-1.4q0 0 0 0l0.7-1.4q0 0-0.1-0.1zm0.7-1.4q0.1 0 0.1 0l0.7-1.4q0 0-0.1-0.1zm0.7-1.4q0.1 0.1 0.1 0.1l0.7-1.4q0 0-0.1-0.1zm1-2.1c-0.2 0.3-0.4 0.7-0.4 0.7q0.2 0 0.2 0l0.7-1.4q0 0-0.2-0.1c0 0-0.1 0.4-0.3 0.8zm0.3-0.8q0.2 0.1 0.2 0.1l0.8-1.4q0 0-0.2-0.1zm0.7-1.4q0.2 0.1 0.2 0.1l0.7-1.4q0 0-0.2-0.1zm0.7-1.4q0.2 0.1 0.2 0.1l0.8-1.4q0 0-0.2-0.1zm0.7-1.4q0.2 0.1 0.2 0.1l0.8-1.4q0 0-0.2-0.1zm0.7-1.4q0.2 0.1 0.2 0.1l0.8-1.4q0 0-0.2-0.1zm0.7-1.3q0.2 0 0.2 0l0.8-1.3q0 0-0.2-0.1zm1.2-2.1c-0.2 0.3-0.4 0.7-0.4 0.7q0.1 0.1 0.1 0.1l0.8-1.4q0 0-0.1-0.1c0 0-0.2 0.3-0.4 0.7zm0.4-0.7q0.1 0.1 0.1 0.1l0.8-1.4q0 0-0.1-0.1zm0.8-1.3q0.1 0 0.1 0l0.8-1.3q0 0-0.1-0.1zm0.8-1.4q0.1 0.1 0.1 0.1l0.7-1.4q0 0 0 0zm0.8-1.4q0.1 0.1 0.1 0.1 0 0 0.8-1.4-0.9 1.3-0.9 1.3zm-11 21q0.7-1.3 0.7-1.3v-0.1q0 0-0.7 1.4zm0.7-1.4v0.1l0.8-1.4-0.1-0.1zm0.7-1.4h0.1l0.7-1.4h-0.1zm0.7-1.4h0.1l0.8-1.4-0.2-0.1zm0.7-1.4l0.2 0.1 0.7-1.4-0.2-0.1zm0.8-1.4l0.1 0.1 0.8-1.4-0.2-0.1zm0.7-1.4l0.2 0.1 0.8-1.4-0.2-0.1zm0.7-1.4l0.2 0.1 0.7-1.4-0.2-0.1zm0.8-1.4l0.2 0.1 0.7-1.4-0.2-0.1zm0.8-1.4l0.2 0.1 0.7-1.4-0.2-0.1zm0.8-1.4l0.2 0.1 0.7-1.4-0.2-0.1zm0.8-1.4l0.2 0.1 0.7-1.4h-0.1zm0.7-1.4l0.2 0.1 0.7-1.4-0.1-0.1zm0.8-1.4l0.1 0.1 0.7-1.4-0.1-0.1zm0.8-1.4l0.1 0.1 0.8-1.4h-0.1zm0.8-1.4q0 0 0.8-1.4-0.8 1.4-0.8 1.4zm-11.1 21q0.8-1.4 0.8-1.4h-0.1q0 0-0.7 1.4zm0.7-1.4h0.1l0.8-1.4h-0.1zm0.7-1.4h0.1l0.8-1.3-0.1-0.1zm0.7-1.4l0.1 0.1 0.8-1.4-0.1-0.1zm0.7-1.4l0.1 0.1 0.8-1.4-0.2-0.1zm0.8-1.4l0.2 0.1 0.7-1.4-0.2-0.1zm0.8-1.4l0.2 0.1 0.7-1.4-0.2-0.1zm0.8-1.4l0.2 0.1 0.7-1.4-0.2-0.1zm0.7-1.4l0.2 0.1 0.8-1.4-0.2-0.1zm0.7-1.4l0.2 0.1 0.8-1.4-0.2-0.1zm0.7-1.4l0.2 0.1 0.7-1.4-0.1-0.1zm0.7-1.4l0.2 0.1 0.7-1.4-0.1-0.1zm0.7-1.4l0.2 0.1 0.7-1.4h-0.2zm0.8-1.4h0.1l0.7-1.4h-0.1zm0.8-1.4h0.1l0.7-1.4h-0.1zm0.8-1.4q0 0 0.7-1.4-0.7 1.4-0.7 1.4zm-11.2 20.9q0.9-1.3 0.9-1.3-0.1 0-0.1 0 0 0-0.8 1.3zm0.8-1.3q0 0 0.1 0l0.8-1.4q-0.1 0-0.1 0zm0.8-1.4q0 0 0.1 0.1l0.8-1.4q-0.1-0.1-0.1-0.1zm0.7-1.4q0 0 0.1 0.1l0.8-1.4q-0.1 0-0.1 0zm0.8-1.4q0 0 0.1 0.1c0 0 0.2-0.4 0.4-0.7 0.2-0.4 0.4-0.7 0.4-0.7q-0.2-0.1-0.2-0.1zm0.8-1.4q0 0 0.2 0.1l0.7-1.4q-0.2-0.1-0.2-0.1zm0.8-1.4q0 0 0.2 0.1l0.7-1.4q-0.1-0.1-0.1-0.1zm0.7-1.4q0 0 0.2 0.1l0.8-1.4q-0.2-0.1-0.2-0.1zm0.7-1.3q0 0 0.2 0.1l0.7-1.4q-0.2-0.2-0.2-0.2zm0.8-1.4q0 0 0.2 0.1l0.7-1.4q-0.2-0.1-0.2-0.1zm0.8-1.4q0 0 0.1 0.1l0.8-1.4q-0.2-0.1-0.2-0.1zm0.7-1.4q0 0 0.2 0.1c0 0 0.2-0.3 0.4-0.7 0.1-0.3 0.3-0.7 0.3-0.7q-0.2-0.1-0.2-0.1zm0.8-1.4q0 0 0.1 0.1l0.7-1.4q-0.1-0.1-0.1-0.1zm0.7-1.4q0 0 0.1 0.1l0.7-1.5q-0.1 0-0.1 0zm0.7-1.4q0 0 0.1 0l0.7-1.4q-0.1 0-0.1 0zm0.7-1.5q0 0 0.1 0.1 0 0 0.6-1.5-0.7 1.4-0.7 1.4z"/>
						</g>
						<g id="&lt;Group&gt;" style="opacity: .7;mix-blend-mode: overlay">
							<path id="&lt;Mesh&gt;" class="s8" d="m398.4 247.7q-1.6 0-1.6 0 0 0 0 0.1 0 0 1.6-0.1zm-1.6 0.1q0-0.1 0-0.1l-1.6 0.1q0 0 0 0.1zm-1.6 0.1q0-0.1 0-0.1l-1.6 0.1q0 0 0 0.1zm-1.5 0.1q0-0.1 0-0.1h-1.6q0 0 0 0.2zm-2.4 0.1c0.4 0 0.8 0 0.8 0q0-0.2 0-0.2h-1.6q0 0 0 0.2c0 0 0.4 0 0.8 0zm-0.8 0q0-0.2 0-0.2l-1.6 0.1q0 0 0 0.2zm-1.5 0q0-0.2 0-0.2h-1.6q0 0 0 0.3zm-1.6 0q0-0.2 0-0.2h-1.6q0 0 0 0.2zm-1.6 0.1q0-0.3 0-0.3h-1.6q0 0 0 0.3zm-1.5 0q0-0.3 0-0.3l-1.6 0.1q0 0 0 0.2zm-1.6 0q0-0.2 0-0.2h-1.6q0 0 0 0.2zm-2.4 0c0.4 0 0.8 0 0.8 0q0-0.2 0-0.2h-1.6q0 0 0 0.1c0 0 0.4 0 0.8 0.1zm-0.8-0.1q0-0.1 0-0.1l-1.5-0.1q0 0 0 0.2zm-1.6-0.1q0-0.1 0-0.1h-1.6q0 0 0 0.1zm-1.6 0q0-0.2 0-0.2h-1.6q0 0 0 0.1zm-1.6-0.1q0-0.1 0-0.1 0 0-1.5 0 1.5 0.1 1.5 0.1zm23.8-0.4q-1.6 0-1.6 0v0.1q0 0 1.6-0.1zm-1.6 0.1v-0.1h-1.6v0.1zm-1.6 0.1v-0.1h-1.6v0.2zm-1.5 0v-0.1h-1.6v0.2zm-1.6 0v-0.2h-1.6v0.2zm-1.6 0.1v-0.2h-1.5v0.2zm-1.6 0v-0.2l-1.6 0.1v0.2zm-1.6 0v-0.2h-1.6v0.2zm-1.6 0.1v-0.3l-1.5 0.1v0.2zm-1.6 0v-0.2h-1.6v0.2zm-1.6 0v-0.2h-1.6v0.2zm-1.6 0v-0.2h-1.5v0.2zm-1.6 0v-0.2h-1.6v0.2zm-1.6 0v-0.2l-1.6 0.1v0.1zm-1.6 0v-0.2l-1.5 0.1zm-1.6 0v-0.1q0 0-1.6 0 1.6 0.1 1.6 0.1zm23.7-0.4q-1.6 0-1.6 0v0.1q0 0 1.6-0.1zm-1.6 0.1v-0.1h-1.5v0.1zm-1.6 0v-0.1h-1.6v0.1zm-1.6 0v-0.1h-1.6v0.2zm-1.6 0v-0.2h-1.5v0.2zm-1.6 0v-0.2h-1.6v0.2zm-1.6 0.1v-0.3l-1.6 0.1v0.2zm-1.6 0v-0.2h-1.5v0.2zm-1.6 0v-0.2h-1.6v0.2zm-1.6 0.1v-0.3l-1.6 0.1v0.2zm-1.6 0v-0.2h-1.5v0.2zm-1.6 0v-0.2l-1.6 0.1v0.2zm-1.6 0v-0.2h-1.6v0.2zm-1.6 0v-0.1h-1.5v0.1zm-1.6 0v-0.1l-1.6 0.1v0.1zm-1.6 0v-0.1q0 0-1.6 0.1 1.6 0 1.6 0zm23.8-0.3q-1.6-0.1-1.6-0.1 0 0.1 0 0.1 0 0 1.6 0zm-1.6 0q0 0 0-0.1l-1.6-0.1q0 0.1 0 0.1zm-1.6 0q0 0 0-0.1l-1.6-0.1q0 0.2 0 0.2zm-1.6 0q0 0 0-0.2h-1.5q0 0.2 0 0.2zm-1.6-0.1q0 0 0-0.1c0 0-0.4 0-0.8 0-0.4-0.1-0.8-0.1-0.8-0.1q0 0.2 0 0.2zm-1.6 0q0 0 0-0.2h-1.6q0 0.2 0 0.2zm-1.6 0.1q0 0 0-0.3h-1.5q0 0.3 0 0.3zm-1.6 0q0 0 0-0.2h-1.6q0 0.2 0 0.2zm-1.6 0q0 0 0-0.2h-1.6q0 0.2 0 0.2zm-1.6 0q0 0 0-0.2l-1.5 0.1q0 0.2 0 0.2zm-1.6 0q0 0 0-0.2h-1.6q0 0.2 0 0.2zm-1.6 0.1q0 0 0-0.2c0 0-0.4 0-0.8 0-0.4 0-0.8 0-0.8 0q0 0.2 0 0.2zm-1.6 0q0 0 0-0.1h-1.5q0 0.2 0 0.2zm-1.6 0q0 0 0-0.1l-1.6 0.1q0 0.1 0 0.1zm-1.6 0q0 0 0-0.1l-1.6 0.2q0 0 0 0zm-1.5 0.1q0 0 0-0.1 0 0-1.6 0.2 1.6-0.1 1.6-0.1z"/>
						</g>
						<g id="&lt;Group&gt;" style="opacity: .7;mix-blend-mode: overlay">
							<path id="&lt;Mesh&gt;" class="s9" d="m398.4 247.7q0.1-1.4 0.1-1.4 0 0 0 0-0.1 0-0.1 1.4zm0.1-1.4q0 0 0 0l0.2-1.4q0 0-0.1-0.1zm0.1-1.4q0.1 0.1 0.1 0.1l0.1-1.4q0 0-0.1-0.1zm0.1-1.4q0.2 0.1 0.2 0.1l0.1-1.4q0 0-0.1-0.1zm0.1-1.4q0.2 0.1 0.2 0.1l0.2-1.4q0 0-0.2-0.1zm0.1-1.4q0.2 0.1 0.2 0.1l0.2-1.4q0 0-0.2 0zm0.2-1.4q0.2 0 0.2 0l0.2-1.4q0 0-0.3 0zm0.2-1.4q0.3 0 0.3 0l0.2-1.4q0 0-0.3 0zm0.2-1.4q0.2 0 0.2 0l0.2-1.4q0 0-0.2 0zm0.2-1.4q0.3 0 0.3 0l0.2-1.4q0 0-0.2 0zm0.2-1.4q0.2 0.1 0.2 0.1l0.2-1.4q0 0-0.2-0.1zm0.2-1.3q0.2 0 0.2 0l0.3-1.4q0 0-0.2 0zm0.2-1.4q0.2 0 0.2 0l0.2-1.4q0 0-0.1 0zm0.3-1.4q0.1 0 0.1 0l0.2-1.3q0 0-0.1-0.1zm0.3-1.3q0.1 0 0.1 0l0.3-1.4q0 0-0.1 0zm0.3-1.4q0.1 0 0.1 0 0 0 0.2-1.4-0.3 1.4-0.3 1.4zm-2.9 20.9q0.2-1.4 0.2-1.4h-0.1q0 0-0.1 1.4zm0.1-1.4h0.1l0.2-1.4h-0.1zm0.1-1.4h0.2l0.2-1.4h-0.2zm0.2-1.4h0.1l0.2-1.4h-0.1zm0.1-1.4h0.2l0.2-1.4h-0.2zm0.2-1.4l0.2 0.1 0.2-1.4-0.2-0.1zm0.1-1.4l0.3 0.1 0.2-1.4-0.3-0.1zm0.2-1.3h0.3l0.2-1.4h-0.3zm0.2-1.4h0.3l0.2-1.4h-0.3zm0.2-1.4h0.3l0.2-1.4h-0.2zm0.2-1.4h0.2l0.2-1.4h-0.2zm0.2-1.4l0.2 0.1 0.2-1.4-0.2-0.1zm0.2-1.3h0.2l0.2-1.4h-0.1zm0.2-1.4h0.2l0.2-1.4h-0.2zm0.3-1.4h0.1l0.2-1.4h-0.1zm0.3-1.4v0.1q0 0 0.2-1.4-0.2 1.3-0.2 1.3zm-3 20.9q0.3-1.4 0.3-1.4h-0.1q0 0-0.2 1.4zm0.2-1.4h0.1l0.2-1.4h-0.1zm0.2-1.4l0.1 0.1 0.3-1.4h-0.2zm0.2-1.4h0.2l0.2-1.4h-0.2zm0.2-1.4h0.2l0.2-1.4h-0.2zm0.2-1.4h0.2l0.2-1.4h-0.2zm0.2-1.4h0.3l0.2-1.3-0.3-0.1zm0.2-1.4l0.3 0.1 0.2-1.4-0.3-0.1zm0.2-1.3h0.3l0.2-1.4h-0.3zm0.2-1.4h0.3l0.2-1.4h-0.3zm0.3-1.4h0.2l0.2-1.4h-0.2zm0.2-1.4h0.2l0.1-1.4h-0.1zm0.2-1.4h0.1l0.2-1.3-0.1-0.1zm0.2-1.4l0.1 0.1 0.2-1.4h-0.1zm0.2-1.4h0.1l0.1-1.4zm0.2-1.4q0 0 0.2-1.4-0.2 1.4-0.2 1.4zm-3.1 20.8q0.4-1.3 0.4-1.3-0.1 0-0.1 0 0 0-0.3 1.3zm0.3-1.3q0 0 0.1 0l0.3-1.4q-0.1 0-0.1 0zm0.2-1.4q0 0 0.1 0l0.3-1.4q-0.2 0-0.2 0zm0.3-1.4q0 0 0.1 0l0.3-1.3q-0.2-0.1-0.2-0.1zm0.2-1.4q0 0 0.2 0.1l0.3-1.4q-0.2 0-0.2 0zm0.2-1.4q0 0 0.2 0l0.2-1.4q-0.2 0-0.2 0zm0.2-1.4q0 0 0.2 0l0.3-1.4q-0.3 0-0.3 0zm0.2-1.4q0 0 0.3 0l0.2-1.3q-0.2-0.1-0.2-0.1zm0.2-1.4q0 0 0.2 0.1l0.2-1.4q-0.2-0.1-0.2-0.1zm0.2-1.3q0 0 0.2 0l0.2-1.4q-0.3 0-0.3 0zm0.2-1.4q0 0 0.3 0l0.1-1.4q-0.2 0-0.2 0zm0.2-1.4q0 0 0.2 0l0.2-1.4q-0.2 0-0.2 0zm0.2-1.4q0 0 0.1 0l0.2-1.4q-0.2 0-0.2 0zm0.2-1.4q0 0 0.2 0l0.1-1.4q-0.1 0-0.1 0zm0.2-1.4q0 0 0.1 0l0.1-1.4q-0.1 0-0.1 0zm0.2-1.4q0 0 0 0 0 0 0.1-1.4-0.1 1.4-0.1 1.4z"/>
						</g>
						<g id="&lt;Group&gt;" style="opacity: .7;mix-blend-mode: overlay">
							<path id="&lt;Mesh&gt;" class="s10" d="m339.9 263q1.3 0.4 1.3 0.4 0 0 0.1-0.1 0 0-1.4-0.3zm1.4 0.3q-0.1 0.1-0.1 0.1l1.4 0.4q0 0 0-0.1zm1.4 0.3q-0.1 0.1-0.1 0.1l1.4 0.5q0 0 0-0.2zm1.4 0.4q-0.1 0.2-0.1 0.2l1.4 0.4q0 0 0-0.2zm1.4 0.4q-0.1 0.2-0.1 0.2l1.4 0.4q0 0 0-0.2zm1.4 0.5q-0.1 0.1-0.1 0.1l1.3 0.5q0 0 0.1-0.2zm1.3 0.4q0 0.2 0 0.2l1.3 0.5q0 0 0.1-0.2zm1.3 0.4q-0.1 0.2-0.1 0.2l1.4 0.5q0 0 0-0.2zm1.4 0.4q-0.1 0.2-0.1 0.2l1.3 0.5q0 0 0.1-0.2zm1.3 0.4q0 0.3 0 0.3l1.3 0.4q0 0 0-0.2zm1.4 0.5q-0.1 0.2-0.1 0.2l1.3 0.5q0 0 0.1-0.2zm1.3 0.5q-0.1 0.2-0.1 0.2l1.4 0.4q0 0 0-0.1zm1.3 0.5q0 0.2 0 0.2l1.3 0.4q0 0 0-0.1zm1.3 0.5q0 0.2 0 0.2l1.3 0.5q0 0 0.1-0.2zm1.3 0.6q-0.1 0.1-0.1 0.1l1.3 0.5q0 0 0.1-0.1zm1.2 0.6q0 0 0 0 0 0 1.3 0.6-1.2-0.6-1.3-0.6zm-19.9-6.8q1.3 0.5 1.3 0.5v-0.1q0 0-1.3-0.4zm1.3 0.4v0.1l1.3 0.4 0.1-0.1zm1.3 0.4v0.1l1.3 0.5 0.1-0.1zm1.3 0.4v0.1l1.3 0.5v-0.2zm1.4 0.4l-0.1 0.2 1.3 0.5 0.1-0.2zm1.4 0.4l-0.1 0.2 1.3 0.5 0.1-0.2zm1.3 0.4l-0.1 0.2 1.4 0.5v-0.2zm1.4 0.4l-0.1 0.2 1.3 0.5 0.1-0.2zm1.3 0.4v0.2l1.3 0.5 0.1-0.2zm1.3 0.5l-0.1 0.2 1.3 0.4 0.1-0.2zm1.3 0.5v0.2l1.3 0.5 0.1-0.2zm1.3 0.4l-0.1 0.2 1.4 0.5v-0.2zm1.3 0.5v0.2l1.3 0.4v-0.1zm1.4 0.5l-0.1 0.1 1.3 0.5 0.1-0.1zm1.3 0.5v0.1l1.3 0.4zm1.3 0.5q0 0 1.3 0.5-1.3-0.5-1.3-0.5zm-19.9-6.9q1.3 0.6 1.3 0.6v-0.1q0 0-1.3-0.5zm1.3 0.5v0.1l1.3 0.5v-0.1zm1.4 0.4l-0.1 0.1 1.3 0.5 0.1-0.1zm1.3 0.4v0.2l1.3 0.5v-0.2zm1.4 0.5l-0.1 0.1 1.3 0.5 0.1-0.2zm1.3 0.5v0.2l1.3 0.4 0.1-0.2zm1.3 0.5l-0.1 0.2 1.3 0.5 0.1-0.2zm1.3 0.4v0.2l1.3 0.5 0.1-0.2zm1.3 0.4l-0.1 0.3 1.4 0.4v-0.2zm1.4 0.5l-0.1 0.2 1.3 0.4 0.1-0.2zm1.3 0.5l-0.1 0.2 1.4 0.4v-0.2zm1.4 0.5l-0.1 0.2 1.3 0.4 0.1-0.1zm1.3 0.4v0.2l1.3 0.4 0.1-0.1zm1.3 0.4l-0.1 0.2 1.4 0.4v-0.1zm1.3 0.5v0.1l1.3 0.4 0.1-0.1zm1.3 0.5q0 0 1.3 0.4-1.3-0.4-1.3-0.4zm-19.9-6.9q1.3 0.6 1.3 0.6 0-0.1 0-0.1 0 0-1.3-0.5zm1.3 0.5q0 0 0 0.1l1.3 0.5q0-0.1 0-0.1zm1.3 0.5q0 0 0 0.1l1.3 0.5q0-0.1 0-0.1zm1.3 0.5q0 0 0 0.1l1.3 0.5q0.1-0.1 0.1-0.1zm1.3 0.5q0 0-0.1 0.1l1.3 0.5q0.1-0.1 0.1-0.1zm1.3 0.4q0 0-0.1 0.2l1.4 0.5q0-0.2 0-0.2zm1.4 0.5q0 0-0.1 0.2l1.3 0.5q0.1-0.2 0.1-0.2zm1.3 0.4q0 0-0.1 0.2l1.4 0.5q0-0.2 0-0.2zm1.4 0.5q0 0-0.1 0.2l1.3 0.4q0.1-0.2 0.1-0.2zm1.3 0.5q0 0 0 0.2l1.3 0.4q0.1-0.2 0.1-0.2zm1.3 0.5q0 0-0.1 0.2l1.4 0.4q0-0.2 0-0.2zm1.4 0.5q0 0-0.1 0.1l1.3 0.5q0.1-0.2 0.1-0.2zm1.3 0.4q0 0 0 0.2l1.3 0.4q0.1-0.1 0.1-0.1zm1.3 0.4q0 0 0 0.1l1.3 0.4q0-0.1 0-0.1zm1.4 0.5q0 0-0.1 0.1l1.4 0.3q0 0 0 0zm1.4 0.4q0 0-0.1 0 0 0 1.4 0.4-1.3-0.4-1.3-0.4z"/>
						</g>
						<g id="&lt;Group&gt;" style="opacity: .7;mix-blend-mode: overlay">
							<path id="&lt;Mesh&gt;" class="s11" d="m338.7 236q1.3-0.6 1.3-0.6 0 0-0.1-0.1 0 0-1.2 0.7zm1.2-0.7q0.1 0.1 0.1 0.1l1.3-0.7q0 0-0.1-0.1zm1.3-0.7q0.1 0.1 0.1 0.1l1.3-0.6q0 0-0.1-0.1zm1.3-0.7q0.1 0.1 0.1 0.1l1.3-0.6q0 0-0.1-0.2zm2-1c-0.4 0.2-0.7 0.4-0.7 0.4q0.1 0.1 0.1 0.1l1.3-0.6q0 0-0.1-0.2c0 0-0.3 0.2-0.6 0.3zm0.6-0.3q0.1 0.2 0.1 0.2l1.3-0.6q0 0-0.1-0.2zm1.4-0.6q0 0.2 0 0.2l1.4-0.7q0 0-0.1-0.2zm1.3-0.6q0.1 0.2 0.1 0.2l1.3-0.6q0 0-0.1-0.2zm1.3-0.6q0.1 0.2 0.1 0.2l1.4-0.6q0 0-0.1-0.2zm1.3-0.6q0.1 0.2 0.1 0.2l1.3-0.6q0 0-0.1-0.2zm1.4-0.6q0.1 0.2 0.1 0.2l1.3-0.6q0 0-0.1-0.2zm2-0.9c-0.3 0.2-0.7 0.3-0.7 0.3q0.1 0.2 0.1 0.2l1.4-0.6q0 0-0.1-0.1c0 0-0.4 0.1-0.7 0.2zm0.7-0.2q0.1 0.1 0.1 0.1l1.3-0.5q0 0-0.1-0.2zm1.4-0.5q0 0.1 0 0.1l1.4-0.6q0 0-0.1-0.1zm1.4-0.5q0 0.1 0 0.1l1.4-0.6q0 0 0 0zm1.3-0.6q0.1 0.1 0.1 0.1 0 0 1.3-0.6-1.4 0.5-1.4 0.5zm-19.8 9.3q1.3-0.6 1.3-0.6v-0.1q0 0-1.3 0.7zm1.3-0.7v0.1l1.3-0.7v-0.1zm1.3-0.6v0.1l1.4-0.6-0.1-0.1zm1.3-0.7l0.1 0.2 1.3-0.7-0.1-0.1zm1.3-0.6l0.1 0.1 1.3-0.6v-0.2zm1.3-0.6l0.1 0.2 1.3-0.6-0.1-0.2zm1.3-0.6l0.1 0.2 1.3-0.7-0.1-0.2zm1.4-0.6l0.1 0.2 1.3-0.6-0.1-0.2zm1.3-0.6l0.1 0.2 1.3-0.6-0.1-0.2zm1.4-0.6l0.1 0.2 1.3-0.6-0.1-0.2zm1.3-0.6l0.1 0.2 1.3-0.6v-0.2zm1.3-0.6l0.1 0.2 1.3-0.6-0.1-0.2zm1.4-0.6v0.2l1.4-0.6-0.1-0.1zm1.3-0.6l0.1 0.1 1.3-0.6v-0.1zm1.3-0.6l0.1 0.1 1.3-0.6zm1.3-0.6v0.1q0 0 1.4-0.6-1.4 0.5-1.4 0.5zm-19.8 9.2q1.3-0.6 1.3-0.6 0 0-1.3 0.6zm1.3-0.6l1.4-0.5-0.1-0.2zm1.3-0.6l0.1 0.1 1.3-0.5v-0.2zm1.3-0.6v0.2l1.4-0.6-0.1-0.2zm1.3-0.6l0.1 0.2 1.3-0.6v-0.2zm1.3-0.6l0.1 0.2 1.3-0.6-0.1-0.2zm1.3-0.6l0.1 0.2 1.4-0.6-0.1-0.2zm1.3-0.6l0.1 0.2 1.3-0.6-0.1-0.2zm1.3-0.6l0.1 0.2 1.4-0.7-0.1-0.1zm1.3-0.7l0.1 0.2 1.3-0.6-0.1-0.2zm1.4-0.6v0.2l1.4-0.6-0.1-0.2zm1.3-0.6l0.1 0.2 1.3-0.6-0.1-0.2zm1.4-0.6v0.2l1.3-0.7v-0.1zm1.3-0.6l0.1 0.1 1.3-0.6-0.1-0.1zm1.4-0.6v0.1l1.3-0.7zm1.3-0.6q0 0 1.3-0.6-1.3 0.6-1.3 0.6zm-19.9 9.1q1.4-0.5 1.4-0.5 0-0.1 0-0.1 0 0-1.4 0.6zm1.4-0.6q0 0 0 0.1l1.4-0.5q-0.1-0.1-0.1-0.1zm1.4-0.6q0 0 0 0.1l1.4-0.6q-0.1-0.1-0.1-0.1zm1.3-0.6q0 0 0.1 0.2l1.4-0.6q-0.1-0.1-0.1-0.1zm1.3-0.6q0 0 0.1 0.1c0 0 0.3-0.1 0.7-0.2 0.3-0.2 0.6-0.3 0.6-0.3q0-0.2 0-0.2zm1.3-0.6q0 0 0.1 0.2l1.3-0.6q-0.1-0.2-0.1-0.2zm1.4-0.6q0 0 0 0.2l1.4-0.6q-0.1-0.2-0.1-0.2zm1.3-0.6q0 0 0.1 0.2l1.3-0.6q0-0.2 0-0.2zm1.3-0.6q0 0 0.1 0.2l1.3-0.6q-0.1-0.2-0.1-0.2zm1.3-0.6q0 0 0.1 0.2l1.3-0.6q-0.1-0.2-0.1-0.2zm1.4-0.6q0 0 0.1 0.1l1.3-0.6q-0.1-0.2-0.1-0.2zm1.3-0.6q0 0 0.1 0.2c0 0 0.3-0.2 0.7-0.3 0.3-0.2 0.6-0.3 0.6-0.3q-0.1-0.2-0.1-0.2zm1.3-0.6q0 0 0.1 0.1l1.3-0.6q0-0.2 0-0.2zm1.3-0.6q0 0 0 0.1l1.3-0.6q0-0.1 0-0.1zm1.3-0.7q0 0 0 0.1l1.3-0.7q0 0 0 0zm1.3-0.7q0 0 0 0.1 0 0 1.3-0.7-1.3 0.6-1.3 0.6z"/>
						</g>
						<g id="&lt;Group&gt;" style="opacity: .7;mix-blend-mode: overlay">
							<path id="&lt;Mesh&gt;" class="s12" d="m359.9 226.3q1.1-0.9 1.1-0.9 0 0 0-0.1 0 0-1.1 1zm1.1-1q0 0.1 0 0.1l1.1-1q0 0-0.1 0zm1.1-1q0.1 0.1 0.1 0.1l1.1-1q0 0-0.1-0.1zm1.2-0.9q0 0.1 0 0.1l1.2-0.9q0 0-0.1-0.2zm1.6-1.4c-0.2 0.2-0.5 0.5-0.5 0.5q0.1 0.1 0.1 0.1l1.1-0.9q0 0-0.1-0.1c0 0-0.3 0.2-0.6 0.4zm0.6-0.4q0.1 0.1 0.1 0.1l1.2-0.9q0 0-0.2-0.2zm1.2-0.9q0.1 0.2 0.1 0.2l1.1-0.9q0 0-0.1-0.2zm1.1-0.9q0.2 0.2 0.2 0.2l1.1-0.9q0 0-0.1-0.2zm1.1-0.9q0.2 0.1 0.2 0.1l1.1-0.9q0 0-0.1-0.1zm1.1-0.9q0.2 0.2 0.2 0.2l1.1-0.9q0 0-0.1-0.2zm1.2-0.9q0.1 0.2 0.1 0.2l1.1-0.9q0 0-0.1-0.2zm1.8-1.3c-0.3 0.2-0.6 0.5-0.6 0.5q0.1 0.1 0.1 0.1l1.2-0.9q0 0-0.1-0.1c0 0-0.3 0.2-0.6 0.4zm0.6-0.4q0.1 0.1 0.1 0.1l1.1-0.8q0 0-0.1-0.2zm1.2-0.8q0.1 0.1 0.1 0.1l1.2-0.9q0 0-0.1 0zm1.2-0.9q0.1 0.1 0.1 0.1l1.2-0.9q0 0-0.1 0zm1.2-0.8q0.1 0 0.1 0 0 0 1.2-0.8-1.3 0.8-1.3 0.8zm-17.1 13.5q1.1-0.9 1.1-0.9 0 0-1.1 0.9zm1.1-0.9l1.2-0.9h-0.1zm1.1-1l0.1 0.1 1.1-0.9-0.1-0.1zm1.2-0.9l0.1 0.1 1.1-0.9-0.1-0.2zm1.1-0.9l0.1 0.2 1.2-0.9-0.1-0.2zm1.1-0.9l0.1 0.1 1.2-0.9-0.2-0.1zm1.2-0.9l0.1 0.1 1.2-0.9-0.2-0.1zm1.2-0.9l0.1 0.1 1.2-0.9-0.2-0.1zm1.2-1l0.1 0.2 1.2-0.9-0.2-0.1zm1.2-0.9l0.1 0.1 1.2-0.9-0.2-0.1zm1.2-0.9l0.1 0.1 1.2-0.8-0.2-0.2zm1.2-0.9l0.1 0.2 1.2-0.9-0.1-0.2zm1.1-0.9l0.1 0.2 1.2-0.9-0.1-0.1zm1.2-0.9v0.1l1.2-0.9-0.1-0.1zm1.2-0.9l0.1 0.1 1.1-0.9zm1.1-0.9l0.1 0.1q0 0 1.1-0.9-1.2 0.8-1.2 0.8zm-17.1 13.6q1.1-0.9 1.1-0.9 0 0-1.1 0.9zm1.1-0.9l1.2-0.9zm1.1-0.9l0.1 0.1 1.1-0.9v-0.1zm1.1-0.9l0.1 0.1 1.2-0.9-0.2-0.1zm1.2-0.9l0.1 0.1 1.2-0.9-0.2-0.1zm1.2-0.9l0.1 0.1 1.2-0.9-0.2-0.1zm1.2-0.9l0.1 0.1 1.2-0.9-0.2-0.1zm1.2-0.9l0.1 0.1 1.2-0.8-0.2-0.2zm1.2-0.9l0.1 0.2 1.2-1-0.2-0.1zm1.2-0.9l0.1 0.1 1.2-0.9-0.2-0.1zm1.2-0.9l0.1 0.1 1.2-0.9-0.2-0.1zm1.2-0.9l0.1 0.1 1.1-0.9-0.1-0.1zm1.2-0.9l0.1 0.1 1.1-0.9-0.1-0.1zm1.2-0.9l0.1 0.1 1.1-0.9-0.1-0.1zm1.2-0.9v0.1l1.2-1h-0.1zm1.2-0.9q0 0 1.1-0.9-1.1 0.9-1.1 0.9zm-17.3 13.5q1.3-0.8 1.3-0.8-0.1-0.1-0.1-0.1 0 0-1.2 0.9zm1.2-0.9q0 0 0.1 0.1l1.2-0.8q-0.1-0.1-0.1-0.1zm1.2-0.9q0 0 0.1 0.1l1.1-0.9q0-0.1 0-0.1zm1.1-0.8q0 0 0.1 0.1l1.2-0.9q-0.1-0.1-0.1-0.1zm1.2-0.9q0 0 0.1 0.1c0 0 0.3-0.2 0.6-0.4 0.2-0.2 0.5-0.4 0.5-0.4q-0.1-0.2-0.1-0.2zm1.2-0.9q0 0 0.1 0.2l1.2-0.9q-0.2-0.1-0.2-0.1zm1.2-0.9q0 0 0.1 0.1l1.2-0.9q-0.2-0.1-0.2-0.1zm1.2-0.9q0 0 0.1 0.2l1.2-0.9q-0.1-0.2-0.1-0.2zm1.1-0.9q0 0 0.2 0.2l1.1-0.9q-0.1-0.2-0.1-0.2zm1.1-0.9q0 0 0.1 0.2l1.2-1q-0.2-0.1-0.2-0.1zm1.2-0.9q0 0 0.1 0.1l1.1-0.9q-0.1-0.1-0.1-0.1zm1.2-0.9q0 0 0.1 0.1c0 0 0.3-0.2 0.6-0.4 0.2-0.3 0.5-0.5 0.5-0.5q-0.1-0.2-0.1-0.2zm1.1-0.9q0 0 0.1 0.2l1.2-1q-0.1-0.1-0.1-0.1zm1.1-0.9q0 0 0.1 0.1l1.1-1q-0.1 0-0.1 0zm1.2-1q0 0 0 0.1l1.1-1q0 0 0 0zm1.1-0.9q0 0 0 0 0 0 1.1-1-1.1 1-1.1 1z"/>
						</g>
						<g id="&lt;Group&gt;" style="opacity: .7;mix-blend-mode: overlay">
							<path id="&lt;Mesh&gt;" class="s13" d="m361.1 270.3q1.2 0.8 1.2 0.8 0 0 0 0 0 0-1.2-0.8zm1.2 0.8q0 0 0 0l1.2 0.8q0 0 0-0.1zm1.2 0.8q-0.1 0.1-0.1 0.1l1.2 0.8q0 0 0.1-0.1zm1.1 0.8q-0.1 0.1-0.1 0.1l1.2 0.8q0 0 0.1-0.1zm1.2 0.8q-0.2 0.1-0.2 0.1l1.2 0.8q0 0 0.1-0.1zm1.2 0.8q-0.2 0.1-0.2 0.1l1.2 0.9q0 0 0.1-0.2zm1.1 0.8q-0.1 0.2-0.1 0.2l1.1 0.8q0 0 0.2-0.1zm1.1 0.8q-0.1 0.2-0.1 0.2l1.1 0.8q0 0 0.1-0.2zm1.2 0.9q-0.2 0.1-0.2 0.1l1.1 0.9q0 0 0.2-0.2zm1.1 0.9q-0.1 0.1-0.1 0.1l1.1 0.9q0 0 0.1-0.2zm1.1 0.9q-0.1 0.1-0.1 0.1l1.1 0.9q0 0 0.1-0.2zm1.1 0.9q-0.1 0.2-0.1 0.2l1.1 0.8q0 0 0.1-0.1zm1.1 0.9q-0.1 0.1-0.1 0.1l1.1 0.9q0 0 0.1-0.1zm1.1 0.9q-0.1 0.1-0.1 0.1l1.1 0.9q0 0 0.1-0.1zm1.1 0.9q-0.1 0.1-0.1 0.1l1.1 0.8q0 0 0 0zm1.1 0.9q0 0.1 0 0.1 0 0 1 0.9-1-1-1-1zm-16.9-12.6q1.1 0.9 1.1 0.9v-0.1q0 0-1.1-0.8zm1.1 0.8v0.1l1.1 0.8 0.1-0.1zm1.1 0.9l1.1 0.9 0.1-0.1zm1.1 0.8l-0.1 0.1 1.2 0.8 0.1-0.1zm1.1 0.8l-0.1 0.2 1.1 0.8 0.1-0.1zm1.2 0.8l-0.1 0.1 1.1 0.9 0.1-0.2zm1.1 0.8l-0.1 0.2 1.1 0.9 0.2-0.2zm1.1 0.8l-0.1 0.2 1.1 0.8 0.1-0.1zm1.2 0.8l-0.2 0.2 1.1 0.8 0.2-0.1zm1.1 0.8l-0.1 0.2 1.1 0.8 0.1-0.1zm1.1 0.8l-0.1 0.2 1.1 0.8 0.1-0.1zm1.2 0.8l-0.2 0.2 1.2 0.8 0.1-0.1zm1.1 0.8l-0.1 0.2 1.1 0.8 0.1-0.1zm1.1 0.9l-0.1 0.1 1.1 0.8h0.1zm1.1 0.8l-0.1 0.1 1.1 0.9 0.1-0.1zm1.1 0.9h-0.1q0 0 1.2 0.9-1.1-0.9-1.1-0.9zm-16.9-12.6q1.1 0.9 1.1 0.9v-0.1q0 0-1.1-0.8zm1.1 0.8v0.1l1.1 0.9v-0.1zm1.2 0.8l-0.1 0.1 1.1 0.9 0.1-0.1zm1.1 0.8l-0.1 0.1 1.1 0.9 0.1-0.2zm1.2 0.9l-0.2 0.1 1.2 0.9 0.1-0.2zm1.1 0.9l-0.1 0.1 1.1 0.9 0.1-0.2zm1.1 0.9l-0.1 0.1 1.1 0.9 0.2-0.2zm1.1 0.9l-0.1 0.1 1.1 0.9 0.1-0.2zm1.1 0.8l-0.1 0.2 1.1 0.9 0.2-0.2zm1.1 0.8l-0.1 0.2 1.1 0.9 0.1-0.2zm1.1 0.8l-0.1 0.2 1.1 0.8 0.2-0.1zm1.1 0.8l-0.1 0.2 1.1 0.8 0.1-0.1zm1.1 0.8l-0.1 0.1 1.2 0.9v-0.1zm1.2 0.8l-0.1 0.1 1.1 0.8 0.1-0.1zm1.1 0.9l-0.1 0.1 1.2 0.8v-0.1zm1.2 0.9h-0.1q0 0 1.2 0.8-1.1-0.8-1.1-0.8zm-16.9-12.7q1.1 1 1.1 0.9 0 0 0 0 0 0-1.1-0.9zm1.1 0.9q0 0 0 0l1 1q0.1-0.1 0.1-0.1zm1.1 0.9q0 0-0.1 0.1l1.1 0.9q0.1-0.2 0.1-0.2zm1.1 0.9q0 0-0.1 0.1l1.1 0.9q0.1-0.1 0.1-0.1zm1.1 0.9q0 0-0.1 0.1l1.1 0.9q0.1-0.2 0.1-0.2zm1.1 0.9q0 0-0.1 0.1l1.1 0.9q0.1-0.2 0.1-0.2zm1.1 0.9q0 0-0.1 0.2l1.1 0.8q0.2-0.2 0.2-0.2zm1.1 0.9q0 0-0.1 0.2l1.1 0.8q0.1-0.2 0.1-0.2zm1.1 0.9q0 0-0.1 0.2l1.1 0.8q0.2-0.2 0.2-0.2zm1.1 0.9q0 0-0.2 0.2l1.2 0.8q0.1-0.2 0.1-0.2zm1.1 0.9q0 0-0.1 0.1l1.1 0.8q0.2-0.1 0.2-0.1zm1.1 0.8q0 0-0.1 0.2l1.1 0.8q0.1-0.2 0.1-0.2zm1.2 0.9q0 0-0.1 0.1l1.1 0.8q0.1-0.1 0.1-0.1zm1.2 0.8q0 0-0.1 0.1l1.1 0.8q0.1-0.1 0.1-0.1zm1.1 0.8q0 0 0 0.1l1.2 0.8q0 0 0 0zm1.1 0.8q0 0 0 0 0 0 1.2 0.8-1.2-0.8-1.2-0.8z"/>
						</g>
						<g id="&lt;Group&gt;" style="opacity: .7;mix-blend-mode: overlay">
							<path id="&lt;Mesh&gt;" class="s14" d="m398.4 247.7q0.3 1.3 0.3 1.3 0 0 0 0 0 0-0.3-1.3zm0.3 1.3q0 0 0 0l0.3 1.4q0 0 0.1 0zm0.3 1.4q-0.1 0-0.1 0l0.3 1.4q0 0 0.1-0.1zm0.3 1.4q-0.1 0-0.1 0l0.2 1.4q0 0 0.2 0zm0.3 1.4q-0.2 0-0.2 0l0.3 1.4q0 0 0.2-0.1zm0.3 1.4q-0.2 0.1-0.2 0.1l0.2 1.3q0 0 0.2 0zm0.3 1.4q-0.2 0-0.2 0l0.2 1.4q0 0 0.2 0zm0.3 1.3q-0.2 0.1-0.2 0.1l0.2 1.4q0 0 0.2-0.1zm0.3 1.4q-0.3 0.1-0.3 0.1l0.3 1.3q0 0 0.2 0zm0.2 1.4q-0.2 0-0.2 0l0.2 1.4q0 0 0.2 0zm0.3 1.4q-0.3 0-0.3 0l0.3 1.4q0 0 0.2 0zm0.2 1.4q-0.2 0-0.2 0l0.2 1.4q0 0 0.2-0.1zm0.1 1.4q-0.1 0.1-0.1 0.1l0.2 1.4q0 0 0.1-0.1zm0.2 1.4q-0.2 0.1-0.2 0.1l0.2 1.3q0 0 0.2 0zm0.1 1.4q-0.1 0-0.1 0l0.2 1.4q0 0 0.1 0zm0.1 1.4q-0.1 0-0.1 0 0 0 0.2 1.4-0.1-1.4-0.1-1.4zm-3.6-20.7q0.2 1.3 0.2 1.3 0 0-0.2-1.3zm0.2 1.3l0.2 1.4h0.1zm0.3 1.4h-0.1l0.2 1.4h0.2zm0.3 1.4h-0.2l0.2 1.4 0.2-0.1zm0.3 1.4h-0.2l0.2 1.4h0.2zm0.3 1.4h-0.2l0.2 1.4h0.2zm0.3 1.3l-0.2 0.1 0.2 1.4 0.2-0.1zm0.3 1.4l-0.2 0.1 0.2 1.3h0.2zm0.3 1.4h-0.3l0.3 1.4h0.2zm0.2 1.4h-0.2l0.2 1.4 0.2-0.1zm0.3 1.4l-0.2 0.1 0.2 1.4 0.2-0.1zm0.2 1.4h-0.2l0.2 1.4h0.2zm0.2 1.4h-0.1l0.2 1.4h0.1zm0.2 1.4h-0.1l0.2 1.4h0.1zm0.2 1.4h-0.1l0.3 1.4v-0.1zm0.2 1.4v0.1q0 0 0.2 1.3-0.2-1.4-0.2-1.4zm-3.6-20.7q0.2 1.4 0.2 1.4l0.1-0.1q0 0-0.3-1.3zm0.3 1.3l-0.1 0.1 0.2 1.4 0.1-0.1zm0.2 1.4h-0.1l0.2 1.4h0.2zm0.2 1.4h-0.1l0.2 1.4h0.1zm0.3 1.4h-0.2l0.2 1.4h0.2zm0.2 1.3l-0.2 0.1 0.3 1.4 0.2-0.1zm0.2 1.4h-0.2l0.2 1.4h0.2zm0.3 1.4h-0.2l0.2 1.4h0.2zm0.3 1.4h-0.3l0.3 1.4 0.2-0.1zm0.2 1.4l-0.2 0.1 0.2 1.3h0.3zm0.2 1.4h-0.2l0.2 1.4h0.2zm0.3 1.4h-0.2l0.2 1.4h0.2zm0.2 1.3l-0.1 0.1 0.2 1.3h0.2zm0.2 1.4h-0.1l0.2 1.4h0.1zm0.3 1.4h-0.1l0.2 1.4h0.1zm0.2 1.4q0 0 0.3 1.3-0.3-1.3-0.3-1.3zm-3.5-20.8q0.1 1.4 0.1 1.4 0.1 0 0.1 0 0 0-0.2-1.4zm0.2 1.4q0 0-0.1 0l0.2 1.4q0.1 0 0.1 0zm0.2 1.3q0 0-0.1 0.1l0.1 1.4q0.2-0.1 0.2-0.1zm0.2 1.4q0 0-0.2 0.1l0.2 1.4q0.2-0.1 0.2-0.1zm0.2 1.4q0 0-0.2 0l0.2 1.4q0.2 0 0.2 0zm0.2 1.4q0 0-0.2 0l0.2 1.4q0.2 0 0.2 0zm0.2 1.4q0 0-0.2 0l0.2 1.4q0.3 0 0.3 0zm0.2 1.3q0 0-0.2 0.1l0.2 1.4q0.2-0.1 0.2-0.1zm0.2 1.4q0 0-0.2 0.1l0.3 1.3q0.2 0 0.2 0zm0.2 1.4q0 0-0.2 0l0.2 1.4q0.3 0 0.3 0zm0.2 1.4q0 0-0.2 0l0.3 1.4q0.2-0.1 0.2-0.1zm0.2 1.4q0 0-0.2 0.1l0.3 1.3q0.2 0 0.2 0zm0.2 1.4q0 0-0.2 0l0.3 1.4q0.2 0 0.2 0zm0.2 1.3q0 0-0.1 0.1l0.3 1.3q0.1 0 0.1 0zm0.3 1.4q0 0-0.1 0l0.3 1.4q0.1 0 0.1 0zm0.3 1.4q0 0-0.1 0 0 0 0.3 1.3-0.2-1.3-0.2-1.3z"/>
						</g>
					</g>
				</g>
			</g>
		</g>
	</g>
</svg>