<svg version="1.2" xmlns="http://www.w3.org/2000/svg" viewBox="0 0 750 500" width="750" height="500">
	<title>5179949</title>
	<defs>
		<radialGradient id="g1" cx="0" cy="0" r="1" gradientUnits="userSpaceOnUse" gradientTransform="matrix(97.45,0,0,16.121,133.203,220.773)">
			<stop offset="0" stop-color="#38246d"/>
			<stop offset="1" stop-color="#ffffff" stop-opacity="0"/>
		</radialGradient>
		<linearGradient id="g2" x2="1" gradientUnits="userSpaceOnUse" gradientTransform="matrix(-64.229,-104.97,58.755,-35.951,120.573,181.861)">
			<stop offset="0" stop-color="#5e52e6"/>
			<stop offset="1" stop-color="#4830c0"/>
		</linearGradient>
		<linearGradient id="g3" x2="1" gradientUnits="userSpaceOnUse" gradientTransform="matrix(67.244,-59.412,99.75,112.899,104.373,96.166)">
			<stop offset="0" stop-color="#5e52e6"/>
			<stop offset="1" stop-color="#4830c0"/>
		</linearGradient>
		<linearGradient id="g4" x2="1" gradientUnits="userSpaceOnUse" gradientTransform="matrix(-8.083,130.729,-219.504,-13.573,254.879,119.879)">
			<stop offset="0" stop-color="#5e52e6"/>
			<stop offset="1" stop-color="#4830c0"/>
		</linearGradient>
		<linearGradient id="g5" x2="1" gradientUnits="userSpaceOnUse" gradientTransform="matrix(89.838,53,-29.666,50.285,87.75,59.758)">
			<stop offset=".192" stop-color="#270a7b"/>
			<stop offset=".729" stop-color="#ffffff" stop-opacity="0"/>
			<stop offset="1" stop-color="#ffffff" stop-opacity="0"/>
		</linearGradient>
		<linearGradient id="g6" x2="1" gradientUnits="userSpaceOnUse" gradientTransform="matrix(-47.359,74.229,-124.627,-79.513,273.863,125.551)">
			<stop offset=".192" stop-color="#270a7b"/>
			<stop offset=".729" stop-color="#ffffff" stop-opacity="0"/>
			<stop offset="1" stop-color="#ffffff" stop-opacity="0"/>
		</linearGradient>
		<linearGradient id="g7" x2="1" gradientUnits="userSpaceOnUse" gradientTransform="matrix(47.307,-59.391,99.723,79.432,67.571,168.437)">
			<stop offset=".192" stop-color="#270a7b"/>
			<stop offset=".729" stop-color="#ffffff" stop-opacity="0"/>
			<stop offset="1" stop-color="#ffffff" stop-opacity="0"/>
		</linearGradient>
	</defs>
	<style>
		tspan { white-space:pre } 
		.s0 { opacity: .4;mix-blend-mode: multiply;fill: url(#g1) } 
		.s1 { fill: url(#g2) } 
		.s2 { fill: url(#g3) } 
		.s3 { fill: url(#g4) } 
		.s4 { opacity: .3;mix-blend-mode: multiply;fill: url(#g5) } 
		.s5 { opacity: .3;mix-blend-mode: multiply;fill: url(#g6) } 
		.s6 { opacity: .3;mix-blend-mode: multiply;fill: url(#g7) } 
		.s7 { fill: #9292f4 } 
	</style>
	<g id="OBJECTS">
		<g id="&lt;Group&gt;">
			<g id="&lt;Group&gt;">
				<g id="&lt;Group&gt;">
					<path id="&lt;Path&gt;" class="s0" d="m257.4 220.8c0 9.9-55.6 18-124.2 18-68.6 0-124.2-8.1-124.2-18 0-10 55.6-18.1 124.2-18.1 68.6 0 124.2 8.1 124.2 18.1z"/>
					<g id="&lt;Group&gt;">
						<g id="&lt;Group&gt;">
							<path id="&lt;Path&gt;" class="s1" d="m164.6 55.9l-15.7 81.7-77.8 29.4 15.6-81.8z"/>
							<path id="&lt;Path&gt;" class="s2" d="m164.6 55.9l62.2 52.3-15.7 81.8-62.2-52.4z"/>
							<path id="&lt;Path&gt;" class="s3" d="m148.9 137.6l62.2 52.4-77.9 29.3-62.1-52.3z"/>
							<path id="&lt;Path&gt;" class="s4" d="m164.6 55.9l-15.7 81.7-77.8 29.4 15.6-81.8z"/>
							<path id="&lt;Path&gt;" class="s5" d="m164.6 55.9l62.2 52.3-15.7 81.8-62.2-52.4z"/>
							<path id="&lt;Path&gt;" fill-rule="evenodd" class="s6" d="m148.9 137.6l62.2 52.4-77.9 29.3-62.1-52.3z"/>
						</g>
						<g id="&lt;Group&gt;" style="mix-blend-mode: overlay">
							<g id="&lt;Group&gt;">
								<path id="&lt;Path&gt;" class="s7" d="m71.1 167c6.3-2.8 12.8-5.4 19.2-8.1q9.6-3.9 19.3-7.7c6.4-2.6 12.9-5 19.4-7.6l19.4-7.4 0.8-0.3 0.7 0.6 15.5 13.1c5.1 4.5 10.2 8.8 15.3 13.3q7.7 6.7 15.3 13.4c5 4.6 10.1 9 15.1 13.7-5.4-4.2-10.7-8.4-16-12.6q-7.9-6.3-15.8-12.8c-5.3-4.2-10.5-8.6-15.7-12.9l-15.6-13 1.4 0.2-19.5 7.3c-6.5 2.4-13 4.8-19.5 7.1q-9.8 3.6-19.6 7c-6.6 2.2-13.1 4.5-19.7 6.7z"/>
							</g>
							<g id="&lt;Group&gt;">
								<path id="&lt;Path&gt;" class="s7" d="m164.6 55.9l-14.2 82-2.9-0.6z"/>
							</g>
						</g>
					</g>
				</g>
			</g>
		</g>
	</g>
	<g id="TEXTURE">
	</g>
</svg>